REM DIRINDEX 1\2,1\4,1\3\5,1\3\6,1\3\7
REM DIRNAME cjc081,folder01,folder02,folder03,folder04,folder05,folder06
TITLE ""
FILE "CD1Track15.mp3" MP3
  TRACK 01 AUDIO
    TITLE "0:"
    INDEX 01 00:00:00
  TRACK 02 AUDIO
    TITLE "5:cjc081_0211"
    INDEX 01 00:00:25
  TRACK 03 AUDIO
    TITLE "0:"
    INDEX 01 00:01:40
  TRACK 04 AUDIO
    TITLE "6:cjc081_0212"
    INDEX 01 00:02:06
  TRACK 05 AUDIO
    TITLE "0:"
    INDEX 01 00:03:74
  TRACK 06 AUDIO
    TITLE "5:cjc081_0213"
    INDEX 01 00:04:40
  TRACK 07 AUDIO
    TITLE "0:"
    INDEX 01 00:05:69
  TRACK 08 AUDIO
    TITLE "6:cjc081_0214"
    INDEX 01 00:06:37
  TRACK 09 AUDIO
    TITLE "0:"
    INDEX 01 00:07:49
  TRACK 10 AUDIO
    TITLE "5:cjc081_0215"
    INDEX 01 00:08:19
  TRACK 11 AUDIO
    TITLE "0:"
    INDEX 01 00:09:40
  TRACK 12 AUDIO
    TITLE "6:cjc081_0216"
    INDEX 01 00:10:06
  TRACK 13 AUDIO
    TITLE "0:"
    INDEX 01 00:11:23
  TRACK 14 AUDIO
    TITLE "5:cjc081_0217"
    INDEX 01 00:11:66
  TRACK 15 AUDIO
    TITLE "0:"
    INDEX 01 00:13:14
  TRACK 16 AUDIO
    TITLE "6:cjc081_0218"
    INDEX 01 00:13:59
  TRACK 17 AUDIO
    TITLE "0:"
    INDEX 01 00:14:62
  TRACK 18 AUDIO
    TITLE "5:cjc081_0219"
    INDEX 01 00:15:34
  TRACK 19 AUDIO
    TITLE "0:"
    INDEX 01 00:16:67
  TRACK 20 AUDIO
    TITLE "6:cjc081_0220"
    INDEX 01 00:17:35
  TRACK 21 AUDIO
    TITLE "0:"
    INDEX 01 00:18:50
  TRACK 22 AUDIO
    TITLE "5:cjc081_0221"
    INDEX 01 00:19:18
  TRACK 23 AUDIO
    TITLE "0:"
    INDEX 01 00:20:37
  TRACK 24 AUDIO
    TITLE "6:cjc081_0222"
    INDEX 01 00:21:11
  TRACK 25 AUDIO
    TITLE "0:"
    INDEX 01 00:22:50
  TRACK 26 AUDIO
    TITLE "5:cjc081_0223"
    INDEX 01 00:23:10
  TRACK 27 AUDIO
    TITLE "0:"
    INDEX 01 00:24:37
  TRACK 28 AUDIO
    TITLE "6:cjc081_0224"
    INDEX 01 00:25:07
  TRACK 29 AUDIO
    TITLE "0:"
    INDEX 01 00:26:20
  TRACK 30 AUDIO
    TITLE "5:cjc081_0225"
    INDEX 01 00:26:66
  TRACK 31 AUDIO
    TITLE "0:"
    INDEX 01 00:28:29
  TRACK 32 AUDIO
    TITLE "6:cjc081_0226"
    INDEX 01 00:28:72
  TRACK 33 AUDIO
    TITLE "0:"
    INDEX 01 00:30:18
  TRACK 34 AUDIO
    TITLE "5:cjc081_0227"
    INDEX 01 00:30:61
  TRACK 35 AUDIO
    TITLE "0:"
    INDEX 01 00:32:11
  TRACK 36 AUDIO
    TITLE "6:cjc081_0228"
    INDEX 01 00:32:54
  TRACK 37 AUDIO
    TITLE "0:"
    INDEX 01 00:34:45
  TRACK 38 AUDIO
    TITLE "5:cjc081_0229"
    INDEX 01 00:35:14
  TRACK 39 AUDIO
    TITLE "0:"
    INDEX 01 00:36:29
  TRACK 40 AUDIO
    TITLE "6:cjc081_0230"
    INDEX 01 00:37:01
  TRACK 41 AUDIO
    TITLE "0:"
    INDEX 01 00:39:39
  TRACK 42 AUDIO
    TITLE "5:cjc081_0231"
    INDEX 01 00:40:07
  TRACK 43 AUDIO
    TITLE "0:"
    INDEX 01 00:42:14
  TRACK 44 AUDIO
    TITLE "6:cjc081_0232"
    INDEX 01 00:42:57
  TRACK 45 AUDIO
    TITLE "0:"
    INDEX 01 00:44:07
  TRACK 46 AUDIO
    TITLE "5:cjc081_0233"
    INDEX 01 00:44:52
  TRACK 47 AUDIO
    TITLE "0:"
    INDEX 01 00:45:71
  TRACK 48 AUDIO
    TITLE "6:cjc081_0234"
    INDEX 01 00:46:43
  TRACK 49 AUDIO
    TITLE "0:"
    INDEX 01 00:50:37
  TRACK 50 AUDIO
    TITLE "5:cjc081_0235"
    INDEX 01 00:51:05
  TRACK 51 AUDIO
    TITLE "0:"
    INDEX 01 00:52:16
  TRACK 52 AUDIO
    TITLE "6:cjc081_0236"
    INDEX 01 00:52:67
  TRACK 53 AUDIO
    TITLE "0:"
    INDEX 01 00:53:57
  TRACK 54 AUDIO
    TITLE "5:cjc081_0237"
    INDEX 01 00:54:30
  TRACK 55 AUDIO
    TITLE "0:"
    INDEX 01 00:55:57
  TRACK 56 AUDIO
    TITLE "6:cjc081_0238"
    INDEX 01 00:56:27
  TRACK 57 AUDIO
    TITLE "0:"
    INDEX 01 00:57:33
  TRACK 58 AUDIO
    TITLE "7:cjc081_0239"
    INDEX 01 00:58:73
  TRACK 59 AUDIO
    TITLE "0:"
    INDEX 01 01:09:16
